<svg width="31" height="29" viewBox="0 0 31 29" fill="none" xmlns="http://www.w3.org/2000/svg">
<g filter="url(#filter0_d_865_2352)">
<path d="M17.5654 6.87109H22.0525L26.4874 11.2538V17.9844H24.4914" stroke="black"/>
<path d="M12.5566 18.0889H19.2872" stroke="black"/>
<circle cx="21.9482" cy="17.9843" r="2.4218" stroke="black"/>
<path fill-rule="evenodd" clip-rule="evenodd" d="M10.0522 19.9061C11.1136 19.9061 11.974 19.0457 11.974 17.9843C11.974 16.9229 11.1136 16.0625 10.0522 16.0625C8.99085 16.0625 8.13043 16.9229 8.13043 17.9843C8.13043 19.0457 8.99085 19.9061 10.0522 19.9061ZM10.0522 20.9061C11.6659 20.9061 12.974 19.598 12.974 17.9843C12.974 16.3706 11.6659 15.0625 10.0522 15.0625C8.43857 15.0625 7.13043 16.3706 7.13043 17.9843C7.13043 19.598 8.43857 20.9061 10.0522 20.9061Z" fill="black"/>
<path d="M5.49817 18.4932L5.49818 3.50098L17.501 3.52347V17.9844H12.4523" stroke="black"/>
<path d="M5.19995 17.9844H7.70435" stroke="black"/>
</g>
<defs>
<filter id="filter0_d_865_2352" x="0" y="0" width="32" height="32" filterUnits="userSpaceOnUse" color-interpolation-filters="sRGB">
<feFlood flood-opacity="0" result="BackgroundImageFix"/>
<feColorMatrix in="SourceAlpha" type="matrix" values="0 0 0 0 0 0 0 0 0 0 0 0 0 0 0 0 0 0 127 0" result="hardAlpha"/>
<feOffset dy="4"/>
<feGaussianBlur stdDeviation="2"/>
<feComposite in2="hardAlpha" operator="out"/>
<feColorMatrix type="matrix" values="0 0 0 0 0 0 0 0 0 0 0 0 0 0 0 0 0 0 0.25 0"/>
<feBlend mode="normal" in2="BackgroundImageFix" result="effect1_dropShadow_865_2352"/>
<feBlend mode="normal" in="SourceGraphic" in2="effect1_dropShadow_865_2352" result="shape"/>
</filter>
</defs>
</svg>
